<svg xmlns="http://www.w3.org/2000/svg" xmlns:v="https://svgstorm.com"
viewBox = "0 0 857 851"
width="857"
height="851">
<g fill="None" fill-opacity="0.0" stroke="#FEFEFE" stroke-opacity="1.00" stroke-width="0.3"><path d="
M 0.00 851.00 
L 857.00 851.00
L 857.00 0.00
L 0.00 0.00
L 0.00 851.00
M 390.00 336.00 
C 386.75 333.22 383.75 330.19 381.00 327.00
C 328.29 274.80 321.37 189.14 355.77 125.77 C 390.18 62.40 466.73 27.02 536.22 40.78 C 605.71 54.54 659.23 103.83 673.78 174.22 C 688.32 244.62 656.11 319.93 592.25 357.25 C 528.40 394.58 446.46 384.24 390.00 336.00
M 97.00 391.00 
C 97.00 509.00 97.00 627.00 97.00 745.00
C 69.33 745.00 41.67 745.00 14.00 745.00
C 14.00 627.00 14.00 509.00 14.00 391.00
C 41.67 391.00 69.33 391.00 97.00 391.00
M 152.00 416.00 
C 172.38 421.05 162.55 449.85 164.00 468.00 C 165.45 486.15 163.61 513.52 164.00 533.00 C 164.39 552.48 164.46 577.52 164.00 597.00 C 163.54 616.48 165.56 643.84 164.00 662.00 C 162.44 680.16 172.58 709.90 152.00 715.00
C 147.86 716.03 138.55 716.97 134.00 716.00 C 129.45 715.03 118.53 718.62 116.00 715.00
C 112.69 710.27 117.48 700.02 116.00 694.00 C 114.52 687.98 116.64 679.67 116.00 673.00 C 115.36 666.33 116.30 657.91 116.00 651.00 C 115.70 644.09 116.13 637.00 116.00 630.00 C 115.87 623.00 116.06 616.09 116.00 609.00 C 115.94 601.91 116.02 594.11 116.00 587.00 C 115.98 579.89 116.00 573.08 116.00 566.00 C 116.00 558.92 115.98 552.11 116.00 545.00 C 116.02 537.89 115.94 530.09 116.00 523.00 C 116.06 515.91 115.85 509.00 116.00 502.00 C 116.15 495.00 115.67 487.92 116.00 481.00 C 116.33 474.08 115.31 465.69 116.00 459.00 C 116.69 452.31 114.40 444.08 116.00 438.00 C 117.60 431.92 112.60 420.85 116.00 416.00
C 118.54 412.36 129.48 415.99 134.00 415.00 C 138.52 414.01 147.95 415.00 152.00 416.00
M 183.00 466.00 
C 185.60 462.29 195.26 466.08 200.00 465.00 C 204.74 463.92 212.59 465.63 218.00 465.00 C 223.41 464.37 230.30 465.61 236.00 465.00 C 241.70 464.39 249.00 465.52 254.00 466.00
C 290.24 466.00 321.74 471.01 355.07 482.93 C 388.41 494.84 423.88 494.38 461.00 495.00 C 498.12 495.62 541.70 493.34 579.00 495.00 C 616.30 496.66 614.81 554.56 579.00 557.00
C 554.56 561.38 527.49 556.90 502.00 558.00 C 476.51 559.10 449.62 558.00 424.00 558.00
C 411.48 558.00 401.29 561.98 389.78 564.78 C 378.26 567.57 373.05 575.04 362.25 579.25 C 351.46 583.47 350.87 602.84 363.01 600.99 C 375.15 599.15 377.74 588.52 389.23 585.23 C 400.72 581.94 410.48 577.25 423.00 577.00
C 447.83 574.00 474.30 576.78 500.00 576.00 C 525.70 575.22 552.22 576.52 578.00 576.00
C 602.38 575.51 624.69 554.50 626.00 530.00
C 649.03 521.68 673.39 511.05 696.03 502.03 C 718.66 493.00 743.99 481.51 766.07 473.07 C 788.16 464.64 819.06 444.53 838.75 469.25 C 858.44 493.97 825.18 513.16 806.31 524.31 C 787.43 535.45 766.36 551.63 746.77 563.77 C 727.18 575.91 706.83 590.20 686.92 602.92 C 667.01 615.64 648.18 628.82 627.77 641.77 C 607.36 654.72 589.17 667.76 567.92 680.92 C 546.66 694.08 531.04 708.15 506.78 718.78 C 482.51 729.40 449.55 722.97 423.98 716.02 C 398.40 709.08 369.92 704.08 343.78 697.22 C 317.64 690.37 289.39 685.65 262.99 679.01 C 236.60 672.37 209.43 666.71 183.00 660.00
C 183.00 595.34 183.00 530.66 183.00 466.00 Z"/>
</g>
<g fill="None" fill-opacity="0.0" stroke="#1E1E1E" stroke-opacity="1.00" stroke-width="0.3"><path d="
M 381.00 327.00 
C 383.94 329.91 387.12 333.12 390.00 336.00
C 446.46 384.24 528.40 394.58 592.25 357.25 C 656.11 319.93 688.32 244.62 673.78 174.22 C 659.23 103.83 605.71 54.54 536.22 40.78 C 466.73 27.02 390.18 62.40 355.77 125.77 C 321.37 189.14 328.29 274.80 381.00 327.00
M 515.00 114.00 
C 530.06 116.12 547.91 110.72 562.00 115.00
C 573.01 118.34 571.60 130.53 561.00 133.00
C 539.32 138.04 512.79 132.76 490.00 134.00
C 464.84 135.37 450.15 166.88 467.75 187.25 C 485.35 207.62 518.78 194.29 541.03 204.98 C 563.27 215.66 574.20 241.86 568.07 265.07 C 561.95 288.29 539.65 305.67 515.00 304.00
C 515.38 316.24 514.49 329.91 515.00 342.00 C 515.51 354.09 496.48 355.31 496.02 342.98 C 495.57 330.65 496.32 316.50 496.00 304.00
C 480.98 304.80 468.24 302.93 453.00 304.00 C 437.76 305.07 438.48 284.06 453.00 285.00 C 467.52 285.94 483.28 284.60 497.00 285.00 C 510.72 285.40 524.40 286.55 535.08 280.08 C 545.76 273.61 550.25 264.73 551.00 253.00 C 551.74 241.27 545.75 230.92 535.92 224.08 C 526.08 217.25 509.96 218.79 498.00 219.00 C 486.04 219.21 473.81 216.31 464.25 209.75 C 454.70 203.19 449.08 195.64 444.70 185.31 C 440.31 174.97 439.72 159.47 443.98 148.98 C 448.23 138.48 453.64 131.63 462.70 124.70 C 471.76 117.76 484.25 113.76 496.00 114.00
C 495.33 101.58 496.90 89.45 496.00 77.00 C 495.10 64.55 514.89 63.36 514.99 76.01 C 515.10 88.66 514.93 101.35 515.00 114.00 Z"/>
</g>
<g fill="None" fill-opacity="0.0" stroke="#F9F9F9" stroke-opacity="1.00" stroke-width="0.3"><path d="
M 490.00 134.00 
C 512.62 130.33 537.69 135.60 561.00 133.00
C 571.60 130.53 573.01 118.34 562.00 115.00
C 555.59 113.92 543.86 116.57 538.00 115.00 C 532.14 113.43 518.21 118.58 515.00 114.00
C 514.93 101.35 515.10 88.66 514.99 76.01 C 514.89 63.36 495.10 64.55 496.00 77.00 C 496.90 89.45 495.33 101.58 496.00 114.00
C 484.25 113.76 471.76 117.76 462.70 124.70 C 453.64 131.63 448.23 138.48 443.98 148.98 C 439.72 159.47 440.31 174.97 444.70 185.31 C 449.08 195.64 454.70 203.19 464.25 209.75 C 473.81 216.31 486.04 219.21 498.00 219.00 C 509.96 218.79 526.08 217.25 535.92 224.08 C 545.75 230.92 551.74 241.27 551.00 253.00 C 550.25 264.73 545.76 273.61 535.08 280.08 C 524.40 286.55 510.72 285.40 497.00 285.00 C 483.28 284.60 467.52 285.94 453.00 285.00 C 438.48 284.06 437.76 305.07 453.00 304.00 C 468.24 302.93 480.98 304.80 496.00 304.00
C 496.32 316.50 495.57 330.65 496.02 342.98 C 496.48 355.31 515.51 354.09 515.00 342.00 C 514.49 329.91 515.38 316.24 515.00 304.00
C 539.65 305.67 561.95 288.29 568.07 265.07 C 574.20 241.86 563.27 215.66 541.03 204.98 C 518.78 194.29 485.35 207.62 467.75 187.25 C 450.15 166.88 464.84 135.37 490.00 134.00 Z"/>
</g>
<g fill="None" fill-opacity="0.0" stroke="#8B8B8B" stroke-opacity="1.00" stroke-width="0.3"><path d="
M 562.00 115.00 
C 547.91 110.72 530.06 116.12 515.00 114.00
C 518.21 118.58 532.14 113.43 538.00 115.00 C 543.86 116.57 555.59 113.92 562.00 115.00 Z"/>
</g>
<g fill="None" fill-opacity="0.0" stroke="#909090" stroke-opacity="1.00" stroke-width="0.3"><path d="
M 490.00 134.00 
C 512.79 132.76 539.32 138.04 561.00 133.00
C 537.69 135.60 512.62 130.33 490.00 134.00 Z"/>
</g>
<g fill="None" fill-opacity="0.0" stroke="#7E7E7E" stroke-opacity="1.00" stroke-width="0.3"><path d="
M 390.00 336.00 
C 387.12 333.12 383.94 329.91 381.00 327.00
C 383.75 330.19 386.75 333.22 390.00 336.00 Z"/>
</g>
<g fill="None" fill-opacity="0.0" stroke="#1E1E1E" stroke-opacity="1.00" stroke-width="0.3"><path d="
M 97.00 391.00 
C 69.33 391.00 41.67 391.00 14.00 391.00
C 14.00 509.00 14.00 627.00 14.00 745.00
C 41.67 745.00 69.33 745.00 97.00 745.00
C 97.00 627.00 97.00 509.00 97.00 391.00 Z"/>
</g>
<g fill="None" fill-opacity="0.0" stroke="#8E8E8E" stroke-opacity="1.00" stroke-width="0.3"><path d="
M 116.00 416.00 
C 127.86 417.10 140.18 414.53 152.00 416.00
C 147.95 415.00 138.52 414.01 134.00 415.00 C 129.48 415.99 118.54 412.36 116.00 416.00 Z"/>
</g>
<g fill="None" fill-opacity="0.0" stroke="#1E1E1E" stroke-opacity="1.00" stroke-width="0.3"><path d="
M 116.00 715.00 
C 127.86 713.90 140.18 716.46 152.00 715.00
C 172.58 709.90 162.44 680.16 164.00 662.00 C 165.56 643.84 163.54 616.48 164.00 597.00 C 164.46 577.52 164.39 552.48 164.00 533.00 C 163.61 513.52 165.45 486.15 164.00 468.00 C 162.55 449.85 172.38 421.05 152.00 416.00
C 140.18 414.53 127.86 417.10 116.00 416.00
C 112.60 420.85 117.60 431.92 116.00 438.00 C 114.40 444.08 116.69 452.31 116.00 459.00 C 115.31 465.69 116.33 474.08 116.00 481.00 C 115.67 487.92 116.15 495.00 116.00 502.00 C 115.85 509.00 116.06 515.91 116.00 523.00 C 115.94 530.09 116.02 537.89 116.00 545.00 C 115.98 552.11 116.00 558.92 116.00 566.00 C 116.00 573.08 115.98 579.89 116.00 587.00 C 116.02 594.11 115.94 601.91 116.00 609.00 C 116.06 616.09 115.87 623.00 116.00 630.00 C 116.13 637.00 115.70 644.09 116.00 651.00 C 116.30 657.91 115.36 666.33 116.00 673.00 C 116.64 679.67 114.52 687.98 116.00 694.00 C 117.48 700.02 112.69 710.27 116.00 715.00 Z"/>
</g>
<g fill="None" fill-opacity="0.0" stroke="#1E1E1E" stroke-opacity="1.00" stroke-width="0.3"><path d="
M 578.00 576.00 
C 553.17 579.00 526.70 576.22 501.00 577.00 C 475.30 577.78 448.78 576.48 423.00 577.00
C 410.48 577.25 400.72 581.94 389.23 585.23 C 377.74 588.52 375.15 599.15 363.01 600.99 C 350.87 602.84 351.46 583.47 362.25 579.25 C 373.05 575.04 378.26 567.57 389.78 564.78 C 401.29 561.98 411.48 558.00 424.00 558.00
C 474.56 553.11 527.70 560.49 579.00 557.00
C 614.81 554.56 616.30 496.66 579.00 495.00 C 541.70 493.34 498.12 495.62 461.00 495.00 C 423.88 494.38 388.41 494.84 355.07 482.93 C 321.74 471.01 290.24 466.00 254.00 466.00
C 230.33 466.00 206.67 466.00 183.00 466.00
C 183.00 530.66 183.00 595.34 183.00 660.00
C 209.43 666.71 236.60 672.37 262.99 679.01 C 289.39 685.65 317.64 690.37 343.78 697.22 C 369.92 704.08 398.40 709.08 423.98 716.02 C 449.55 722.97 482.51 729.40 506.78 718.78 C 531.04 708.15 546.66 694.08 567.92 680.92 C 589.17 667.76 607.36 654.72 627.77 641.77 C 648.18 628.82 667.01 615.64 686.92 602.92 C 706.83 590.20 727.18 575.91 746.77 563.77 C 766.36 551.63 787.43 535.45 806.31 524.31 C 825.18 513.16 858.44 493.97 838.75 469.25 C 819.06 444.53 788.16 464.64 766.07 473.07 C 743.99 481.51 718.66 493.00 696.03 502.03 C 673.39 511.05 649.03 521.68 626.00 530.00
C 624.69 554.50 602.38 575.51 578.00 576.00 Z"/>
</g>
<g fill="None" fill-opacity="0.0" stroke="#8E8E8E" stroke-opacity="1.00" stroke-width="0.3"><path d="
M 183.00 466.00 
C 206.67 466.00 230.33 466.00 254.00 466.00
C 249.00 465.52 241.70 464.39 236.00 465.00 C 230.30 465.61 223.41 464.37 218.00 465.00 C 212.59 465.63 204.74 463.92 200.00 465.00 C 195.26 466.08 185.60 462.29 183.00 466.00 Z"/>
</g>
<g fill="None" fill-opacity="0.0" stroke="#8B8B8B" stroke-opacity="1.00" stroke-width="0.3"><path d="
M 424.00 558.00 
C 449.62 558.00 476.51 559.10 502.00 558.00 C 527.49 556.90 554.56 561.38 579.00 557.00
C 527.70 560.49 474.56 553.11 424.00 558.00 Z"/>
</g>
<g fill="None" fill-opacity="0.0" stroke="#909090" stroke-opacity="1.00" stroke-width="0.3"><path d="
M 423.00 577.00 
C 448.78 576.48 475.30 577.78 501.00 577.00 C 526.70 576.22 553.17 579.00 578.00 576.00
C 552.22 576.52 525.70 575.22 500.00 576.00 C 474.30 576.78 447.83 574.00 423.00 577.00 Z"/>
</g>
<g fill="None" fill-opacity="0.0" stroke="#919191" stroke-opacity="1.00" stroke-width="0.3"><path d="
M 152.00 715.00 
C 140.18 716.46 127.86 713.90 116.00 715.00
C 118.53 718.62 129.45 715.03 134.00 716.00 C 138.55 716.97 147.86 716.03 152.00 715.00 Z"/>
</g>
<g fill="#FEFEFE" fill-opacity="1.00" stroke="None">
<path d="
M 0.00 851.00 
L 857.00 851.00
L 857.00 0.00
L 0.00 0.00
L 0.00 851.00
M 390.00 336.00 
C 386.75 333.22 383.75 330.19 381.00 327.00
C 328.29 274.80 321.37 189.14 355.77 125.77 C 390.18 62.40 466.73 27.02 536.22 40.78 C 605.71 54.54 659.23 103.83 673.78 174.22 C 688.32 244.62 656.11 319.93 592.25 357.25 C 528.40 394.58 446.46 384.24 390.00 336.00
M 97.00 391.00 
C 97.00 509.00 97.00 627.00 97.00 745.00
C 69.33 745.00 41.67 745.00 14.00 745.00
C 14.00 627.00 14.00 509.00 14.00 391.00
C 41.67 391.00 69.33 391.00 97.00 391.00
M 152.00 416.00 
C 172.38 421.05 162.55 449.85 164.00 468.00 C 165.45 486.15 163.61 513.52 164.00 533.00 C 164.39 552.48 164.46 577.52 164.00 597.00 C 163.54 616.48 165.56 643.84 164.00 662.00 C 162.44 680.16 172.58 709.90 152.00 715.00
C 147.86 716.03 138.55 716.97 134.00 716.00 C 129.45 715.03 118.53 718.62 116.00 715.00
C 112.69 710.27 117.48 700.02 116.00 694.00 C 114.52 687.98 116.64 679.67 116.00 673.00 C 115.36 666.33 116.30 657.91 116.00 651.00 C 115.70 644.09 116.13 637.00 116.00 630.00 C 115.87 623.00 116.06 616.09 116.00 609.00 C 115.94 601.91 116.02 594.11 116.00 587.00 C 115.98 579.89 116.00 573.08 116.00 566.00 C 116.00 558.92 115.98 552.11 116.00 545.00 C 116.02 537.89 115.94 530.09 116.00 523.00 C 116.06 515.91 115.85 509.00 116.00 502.00 C 116.15 495.00 115.67 487.92 116.00 481.00 C 116.33 474.08 115.31 465.69 116.00 459.00 C 116.69 452.31 114.40 444.08 116.00 438.00 C 117.60 431.92 112.60 420.85 116.00 416.00
C 118.54 412.36 129.48 415.99 134.00 415.00 C 138.52 414.01 147.95 415.00 152.00 416.00
M 183.00 466.00 
C 185.60 462.29 195.26 466.08 200.00 465.00 C 204.74 463.92 212.59 465.63 218.00 465.00 C 223.41 464.37 230.30 465.61 236.00 465.00 C 241.70 464.39 249.00 465.52 254.00 466.00
C 290.24 466.00 321.74 471.01 355.07 482.93 C 388.41 494.84 423.88 494.38 461.00 495.00 C 498.12 495.62 541.70 493.34 579.00 495.00 C 616.30 496.66 614.81 554.56 579.00 557.00
C 554.56 561.38 527.49 556.90 502.00 558.00 C 476.51 559.10 449.62 558.00 424.00 558.00
C 411.48 558.00 401.29 561.98 389.78 564.78 C 378.26 567.57 373.05 575.04 362.25 579.25 C 351.46 583.47 350.87 602.84 363.01 600.99 C 375.15 599.15 377.74 588.52 389.23 585.23 C 400.72 581.94 410.48 577.25 423.00 577.00
C 447.83 574.00 474.30 576.78 500.00 576.00 C 525.70 575.22 552.22 576.52 578.00 576.00
C 602.38 575.51 624.69 554.50 626.00 530.00
C 649.03 521.68 673.39 511.05 696.03 502.03 C 718.66 493.00 743.99 481.51 766.07 473.07 C 788.16 464.64 819.06 444.53 838.75 469.25 C 858.44 493.97 825.18 513.16 806.31 524.31 C 787.43 535.45 766.36 551.63 746.77 563.77 C 727.18 575.91 706.83 590.20 686.92 602.92 C 667.01 615.64 648.18 628.82 627.77 641.77 C 607.36 654.72 589.17 667.76 567.92 680.92 C 546.66 694.08 531.04 708.15 506.78 718.78 C 482.51 729.40 449.55 722.97 423.98 716.02 C 398.40 709.08 369.92 704.08 343.78 697.22 C 317.64 690.37 289.39 685.65 262.99 679.01 C 236.60 672.37 209.43 666.71 183.00 660.00
C 183.00 595.34 183.00 530.66 183.00 466.00 Z"/>
</g>
<g fill="#1E1E1E" fill-opacity="1.00" stroke="None">
<path d="
M 381.00 327.00 
C 383.94 329.91 387.12 333.12 390.00 336.00
C 446.46 384.24 528.40 394.58 592.25 357.25 C 656.11 319.93 688.32 244.62 673.78 174.22 C 659.23 103.83 605.71 54.54 536.22 40.78 C 466.73 27.02 390.18 62.40 355.77 125.77 C 321.37 189.14 328.29 274.80 381.00 327.00
M 515.00 114.00 
C 530.06 116.12 547.91 110.72 562.00 115.00
C 573.01 118.34 571.60 130.53 561.00 133.00
C 539.32 138.04 512.79 132.76 490.00 134.00
C 464.84 135.37 450.15 166.88 467.75 187.25 C 485.35 207.62 518.78 194.29 541.03 204.98 C 563.27 215.66 574.20 241.86 568.07 265.07 C 561.95 288.29 539.65 305.67 515.00 304.00
C 515.38 316.24 514.49 329.91 515.00 342.00 C 515.51 354.09 496.48 355.31 496.02 342.98 C 495.57 330.65 496.32 316.50 496.00 304.00
C 480.98 304.80 468.24 302.93 453.00 304.00 C 437.76 305.07 438.48 284.06 453.00 285.00 C 467.52 285.94 483.28 284.60 497.00 285.00 C 510.72 285.40 524.40 286.55 535.08 280.08 C 545.76 273.61 550.25 264.73 551.00 253.00 C 551.74 241.27 545.75 230.92 535.92 224.08 C 526.08 217.25 509.96 218.79 498.00 219.00 C 486.04 219.21 473.81 216.31 464.25 209.75 C 454.70 203.19 449.08 195.64 444.70 185.31 C 440.31 174.97 439.72 159.47 443.98 148.98 C 448.23 138.48 453.64 131.63 462.70 124.70 C 471.76 117.76 484.25 113.76 496.00 114.00
C 495.33 101.58 496.90 89.45 496.00 77.00 C 495.10 64.55 514.89 63.36 514.99 76.01 C 515.10 88.66 514.93 101.35 515.00 114.00 Z"/>
</g>
<g fill="#F9F9F9" fill-opacity="1.00" stroke="None">
<path d="
M 490.00 134.00 
C 512.62 130.33 537.69 135.60 561.00 133.00
C 571.60 130.53 573.01 118.34 562.00 115.00
C 555.59 113.92 543.86 116.57 538.00 115.00 C 532.14 113.43 518.21 118.58 515.00 114.00
C 514.93 101.35 515.10 88.66 514.99 76.01 C 514.89 63.36 495.10 64.55 496.00 77.00 C 496.90 89.45 495.33 101.58 496.00 114.00
C 484.25 113.76 471.76 117.76 462.70 124.70 C 453.64 131.63 448.23 138.48 443.98 148.98 C 439.72 159.47 440.31 174.97 444.70 185.31 C 449.08 195.64 454.70 203.19 464.25 209.75 C 473.81 216.31 486.04 219.21 498.00 219.00 C 509.96 218.79 526.08 217.25 535.92 224.08 C 545.75 230.92 551.74 241.27 551.00 253.00 C 550.25 264.73 545.76 273.61 535.08 280.08 C 524.40 286.55 510.72 285.40 497.00 285.00 C 483.28 284.60 467.52 285.94 453.00 285.00 C 438.48 284.06 437.76 305.07 453.00 304.00 C 468.24 302.93 480.98 304.80 496.00 304.00
C 496.32 316.50 495.57 330.65 496.02 342.98 C 496.48 355.31 515.51 354.09 515.00 342.00 C 514.49 329.91 515.38 316.24 515.00 304.00
C 539.65 305.67 561.95 288.29 568.07 265.07 C 574.20 241.86 563.27 215.66 541.03 204.98 C 518.78 194.29 485.35 207.62 467.75 187.25 C 450.15 166.88 464.84 135.37 490.00 134.00 Z"/>
</g>
<g fill="#8B8B8B" fill-opacity="1.00" stroke="None">
<path d="
M 562.00 115.00 
C 547.91 110.72 530.06 116.12 515.00 114.00
C 518.21 118.58 532.14 113.43 538.00 115.00 C 543.86 116.57 555.59 113.92 562.00 115.00 Z"/>
</g>
<g fill="#909090" fill-opacity="1.00" stroke="None">
<path d="
M 490.00 134.00 
C 512.79 132.76 539.32 138.04 561.00 133.00
C 537.69 135.60 512.62 130.33 490.00 134.00 Z"/>
</g>
<g fill="#7E7E7E" fill-opacity="1.00" stroke="None">
<path d="
M 390.00 336.00 
C 387.12 333.12 383.94 329.91 381.00 327.00
C 383.75 330.19 386.75 333.22 390.00 336.00 Z"/>
</g>
<g fill="#1E1E1E" fill-opacity="1.00" stroke="None">
<path d="
M 97.00 391.00 
C 69.33 391.00 41.67 391.00 14.00 391.00
C 14.00 509.00 14.00 627.00 14.00 745.00
C 41.67 745.00 69.33 745.00 97.00 745.00
C 97.00 627.00 97.00 509.00 97.00 391.00 Z"/>
</g>
<g fill="#8E8E8E" fill-opacity="1.00" stroke="None">
<path d="
M 116.00 416.00 
C 127.86 417.10 140.18 414.53 152.00 416.00
C 147.95 415.00 138.52 414.01 134.00 415.00 C 129.48 415.99 118.54 412.36 116.00 416.00 Z"/>
</g>
<g fill="#1E1E1E" fill-opacity="1.00" stroke="None">
<path d="
M 116.00 715.00 
C 127.86 713.90 140.18 716.46 152.00 715.00
C 172.58 709.90 162.44 680.16 164.00 662.00 C 165.56 643.84 163.54 616.48 164.00 597.00 C 164.46 577.52 164.39 552.48 164.00 533.00 C 163.61 513.52 165.45 486.15 164.00 468.00 C 162.55 449.85 172.38 421.05 152.00 416.00
C 140.18 414.53 127.86 417.10 116.00 416.00
C 112.60 420.85 117.60 431.92 116.00 438.00 C 114.40 444.08 116.69 452.31 116.00 459.00 C 115.31 465.69 116.33 474.08 116.00 481.00 C 115.67 487.92 116.15 495.00 116.00 502.00 C 115.85 509.00 116.06 515.91 116.00 523.00 C 115.94 530.09 116.02 537.89 116.00 545.00 C 115.98 552.11 116.00 558.92 116.00 566.00 C 116.00 573.08 115.98 579.89 116.00 587.00 C 116.02 594.11 115.94 601.91 116.00 609.00 C 116.06 616.09 115.87 623.00 116.00 630.00 C 116.13 637.00 115.70 644.09 116.00 651.00 C 116.30 657.91 115.36 666.33 116.00 673.00 C 116.64 679.67 114.52 687.98 116.00 694.00 C 117.48 700.02 112.69 710.27 116.00 715.00 Z"/>
</g>
<g fill="#1E1E1E" fill-opacity="1.00" stroke="None">
<path d="
M 578.00 576.00 
C 553.17 579.00 526.70 576.22 501.00 577.00 C 475.30 577.78 448.78 576.48 423.00 577.00
C 410.48 577.25 400.72 581.94 389.23 585.23 C 377.74 588.52 375.15 599.15 363.01 600.99 C 350.87 602.84 351.46 583.47 362.25 579.25 C 373.05 575.04 378.26 567.57 389.78 564.78 C 401.29 561.98 411.48 558.00 424.00 558.00
C 474.56 553.11 527.70 560.49 579.00 557.00
C 614.81 554.56 616.30 496.66 579.00 495.00 C 541.70 493.34 498.12 495.62 461.00 495.00 C 423.88 494.38 388.41 494.84 355.07 482.93 C 321.74 471.01 290.24 466.00 254.00 466.00
C 230.33 466.00 206.67 466.00 183.00 466.00
C 183.00 530.66 183.00 595.34 183.00 660.00
C 209.43 666.71 236.60 672.37 262.99 679.01 C 289.39 685.65 317.64 690.37 343.78 697.22 C 369.92 704.08 398.40 709.08 423.98 716.02 C 449.55 722.97 482.51 729.40 506.78 718.78 C 531.04 708.15 546.66 694.08 567.92 680.92 C 589.17 667.76 607.36 654.72 627.77 641.77 C 648.18 628.82 667.01 615.64 686.92 602.92 C 706.83 590.20 727.18 575.91 746.77 563.77 C 766.36 551.63 787.43 535.45 806.31 524.31 C 825.18 513.16 858.44 493.97 838.75 469.25 C 819.06 444.53 788.16 464.64 766.07 473.07 C 743.99 481.51 718.66 493.00 696.03 502.03 C 673.39 511.05 649.03 521.68 626.00 530.00
C 624.69 554.50 602.38 575.51 578.00 576.00 Z"/>
</g>
<g fill="#8E8E8E" fill-opacity="1.00" stroke="None">
<path d="
M 183.00 466.00 
C 206.67 466.00 230.33 466.00 254.00 466.00
C 249.00 465.52 241.70 464.39 236.00 465.00 C 230.30 465.61 223.41 464.37 218.00 465.00 C 212.59 465.63 204.74 463.92 200.00 465.00 C 195.26 466.08 185.60 462.29 183.00 466.00 Z"/>
</g>
<g fill="#8B8B8B" fill-opacity="1.00" stroke="None">
<path d="
M 424.00 558.00 
C 449.62 558.00 476.51 559.10 502.00 558.00 C 527.49 556.90 554.56 561.38 579.00 557.00
C 527.70 560.49 474.56 553.11 424.00 558.00 Z"/>
</g>
<g fill="#909090" fill-opacity="1.00" stroke="None">
<path d="
M 423.00 577.00 
C 448.78 576.48 475.30 577.78 501.00 577.00 C 526.70 576.22 553.17 579.00 578.00 576.00
C 552.22 576.52 525.70 575.22 500.00 576.00 C 474.30 576.78 447.83 574.00 423.00 577.00 Z"/>
</g>
<g fill="#919191" fill-opacity="1.00" stroke="None">
<path d="
M 152.00 715.00 
C 140.18 716.46 127.86 713.90 116.00 715.00
C 118.53 718.62 129.45 715.03 134.00 716.00 C 138.55 716.97 147.86 716.03 152.00 715.00 Z"/>
</g>
</svg>